<svg preserveAspectRatio="none" width="100%" height="100%" overflow="visible" style="display: block;" viewBox="0 0 17 18" fill="none" xmlns="http://www.w3.org/2000/svg">
<g id="Group">
<g id="Vector">
</g>
<path id="Vector_2" d="M9.58333 0C11.4619 0 13.2636 0.746278 14.592 2.07466C15.9204 3.40304 16.6667 5.20472 16.6667 7.08333C16.6667 8.96195 15.9204 10.7636 14.592 12.092C13.2636 13.4204 11.4619 14.1667 9.58333 14.1667H9.16667V14.9917C9.16667 15.1023 9.14487 15.2118 9.10252 15.314C9.06017 15.4161 8.9981 15.5089 8.91985 15.5871C8.84161 15.6653 8.74873 15.7273 8.64651 15.7695C8.5443 15.8118 8.43477 15.8334 8.32417 15.8333C6.27417 15.8317 4.1975 15.1475 2.62167 13.7467C1.03167 12.3317 0.00166667 10.2292 0 7.5075V7.08333C0 5.20472 0.746278 3.40304 2.07466 2.07466C3.40304 0.746278 5.20472 0 7.08333 0H9.58333ZM9.58333 1.66667H7.08333C5.64674 1.66667 4.26899 2.23735 3.25317 3.25317C2.23735 4.26899 1.66667 5.64674 1.66667 7.08333L1.6675 7.6375C1.70083 9.83917 2.535 11.4392 3.73 12.5008C4.76167 13.4192 6.0975 13.9667 7.5 14.1208V13.3417C7.5 12.8767 7.87667 12.5 8.34167 12.5H9.58333C11.0199 12.5 12.3977 11.9293 13.4135 10.9135C14.4293 9.89767 15 8.51992 15 7.08333C15 5.64674 14.4293 4.26899 13.4135 3.25317C12.3977 2.23735 11.0199 1.66667 9.58333 1.66667ZM5.41667 5.83333C5.74819 5.83333 6.06613 5.96503 6.30055 6.19945C6.53497 6.43387 6.66667 6.75181 6.66667 7.08333C6.66667 7.41485 6.53497 7.7328 6.30055 7.96722C6.06613 8.20164 5.74819 8.33333 5.41667 8.33333C5.08515 8.33333 4.7672 8.20164 4.53278 7.96722C4.29836 7.7328 4.16667 7.41485 4.16667 7.08333C4.16667 6.75181 4.29836 6.43387 4.53278 6.19945C4.7672 5.96503 5.08515 5.83333 5.41667 5.83333ZM11.25 5.83333C11.5815 5.83333 11.8995 5.96503 12.1339 6.19945C12.3683 6.43387 12.5 6.75181 12.5 7.08333C12.5 7.41485 12.3683 7.7328 12.1339 7.96722C11.8995 8.20164 11.5815 8.33333 11.25 8.33333C10.9185 8.33333 10.6005 8.20164 10.3661 7.96722C10.1317 7.7328 10 7.41485 10 7.08333C10 6.75181 10.1317 6.43387 10.3661 6.19945C10.6005 5.96503 10.9185 5.83333 11.25 5.83333Z" fill="var(--fill-0, white)"/>
</g>
</svg>
