<svg width="20" height="20" viewBox="0 0 20 20" fill="none" xmlns="http://www.w3.org/2000/svg">
<g clip-path="url(#clip0_8_402)">
<path d="M7.74981 7.74997V17.5865C7.74847 17.7043 7.77068 17.8212 7.81514 17.9303C7.8596 18.0394 7.92542 18.1385 8.00872 18.2218C8.09203 18.3051 8.19115 18.371 8.30025 18.4154C8.40935 18.4599 8.52624 18.4821 8.64404 18.4807C8.76185 18.4821 8.87874 18.4599 8.98784 18.4154C9.09694 18.371 9.19606 18.3051 9.27937 18.2218C9.36267 18.1385 9.42849 18.0394 9.47295 17.9303C9.51741 17.8212 9.53962 17.7043 9.53828 17.5865" stroke="white" stroke-width="1.19231" stroke-miterlimit="10" stroke-linecap="round"/>
<path d="M9.53827 12.5192V17.5865C9.53692 17.7043 9.55913 17.8212 9.60359 17.9303C9.64805 18.0394 9.71387 18.1385 9.79718 18.2218C9.88048 18.3051 9.9796 18.371 10.0887 18.4154C10.1978 18.4599 10.3147 18.4821 10.4325 18.4807C10.5503 18.4821 10.6672 18.4599 10.7763 18.4154C10.8854 18.371 10.9845 18.3051 11.0678 18.2218C11.1511 18.1385 11.2169 18.0394 11.2614 17.9303C11.3059 17.8212 11.3281 17.7043 11.3267 17.5865V7.74997" stroke="white" stroke-width="1.19231" stroke-miterlimit="10" stroke-linecap="round"/>
<path d="M7.74983 7.15382V10.4327C7.75123 10.5505 7.72905 10.6674 7.68461 10.7765C7.64016 10.8856 7.57435 10.9848 7.49103 11.0681C7.40771 11.1514 7.30858 11.2172 7.19945 11.2617C7.09033 11.3061 6.97342 11.3283 6.8556 11.3269C6.73778 11.3283 6.62087 11.3061 6.51174 11.2617C6.40262 11.2172 6.30348 11.1514 6.22016 11.0681C6.13684 10.9848 6.07103 10.8856 6.02659 10.7765C5.98214 10.6674 5.95997 10.5505 5.96137 10.4327V7.15382C5.96137 6.67949 6.14979 6.22459 6.48519 5.88918C6.8206 5.55378 7.2755 5.36536 7.74983 5.36536H11.3268C11.8011 5.36536 12.256 5.55378 12.5914 5.88918C12.9268 6.22459 13.1152 6.67949 13.1152 7.15382V10.4327C13.1166 10.5505 13.0944 10.6674 13.05 10.7765C13.0055 10.8856 12.9397 10.9848 12.8564 11.0681C12.7731 11.1514 12.674 11.2172 12.5648 11.2617C12.4557 11.3061 12.3388 11.3283 12.221 11.3269C12.1032 11.3283 11.9863 11.3061 11.8771 11.2617C11.768 11.2172 11.6689 11.1514 11.5855 11.0681C11.5022 10.9848 11.4364 10.8856 11.392 10.7765C11.3475 10.6674 11.3254 10.5505 11.3268 10.4327V7.15382" stroke="white" stroke-width="1.19231" stroke-miterlimit="10" stroke-linecap="round"/>
<path d="M9.53824 3.5769C10.3614 3.5769 11.0286 2.90963 11.0286 2.08651C11.0286 1.2634 10.3614 0.59613 9.53824 0.59613C8.71512 0.59613 8.04785 1.2634 8.04785 2.08651C8.04785 2.90963 8.71512 3.5769 9.53824 3.5769Z" stroke="white" stroke-width="1.19231" stroke-miterlimit="10" stroke-linecap="round"/>
</g>
<defs>
<clipPath id="clip0_8_402">
<rect width="19.0769" height="19.0769" fill="white"/>
</clipPath>
</defs>
</svg>
