<svg width="19" height="22" viewBox="0 0 19 22" fill="none" xmlns="http://www.w3.org/2000/svg">
<path d="M16.6923 18.8161C17.0597 18.8163 17.413 18.9578 17.679 19.2114C17.9449 19.465 18.1031 19.8111 18.1207 20.1781C18.1384 20.5452 18.0142 20.9049 17.7738 21.1828C17.5334 21.4607 17.1954 21.6355 16.8297 21.671L16.6923 21.6777H1.43077C1.06333 21.6775 0.710048 21.5359 0.444124 21.2824C0.178199 21.0288 0.0200193 20.6827 0.00236147 20.3157C-0.0152964 19.9486 0.108921 19.5889 0.349275 19.311C0.589629 19.0331 0.927692 18.8583 1.29342 18.8228L1.43077 18.8161H16.6923ZM16.6923 12.1392C17.0718 12.1392 17.4357 12.2899 17.704 12.5583C17.9723 12.8266 18.1231 13.1905 18.1231 13.57C18.1231 13.9494 17.9723 14.3134 17.704 14.5817C17.4357 14.85 17.0718 15.0007 16.6923 15.0007H1.43077C1.05131 15.0007 0.687384 14.85 0.419063 14.5817C0.150741 14.3134 0 13.9494 0 13.57C0 13.1905 0.150741 12.8266 0.419063 12.5583C0.687384 12.2899 1.05131 12.1392 1.43077 12.1392H16.6923ZM16.6923 5.46228C17.0718 5.46228 17.4357 5.61302 17.704 5.88134C17.9723 6.14966 18.1231 6.51359 18.1231 6.89305C18.1231 7.27251 17.9723 7.63644 17.704 7.90476C17.4357 8.17308 17.0718 8.32382 16.6923 8.32382H1.43077C1.05131 8.32382 0.687384 8.17308 0.419063 7.90476C0.150741 7.63644 0 7.27251 0 6.89305C0 6.51359 0.150741 6.14966 0.419063 5.88134C0.687384 5.61302 1.05131 5.46228 1.43077 5.46228H16.6923Z" fill="white"/>
</svg>
