<svg width="40" height="40" viewBox="0 0 40 40" fill="none" xmlns="http://www.w3.org/2000/svg">
<mask id="mask0_8_410" style="mask-type:alpha" maskUnits="userSpaceOnUse" x="0" y="0" width="40" height="40">
<rect width="40" height="40" fill="#D9D9D9"/>
</mask>
<g mask="url(#mask0_8_410)">
<path d="M20.001 24.9999C21.3899 24.9999 22.5705 24.5137 23.5427 23.5415C24.5149 22.5693 25.001 21.3887 25.001 19.9999C25.001 18.611 24.5149 17.4304 23.5427 16.4582C22.5705 15.486 21.3899 14.9999 20.001 14.9999C18.6121 14.9999 17.4316 15.486 16.4594 16.4582C15.4871 17.4304 15.001 18.611 15.001 19.9999C15.001 21.3887 15.4871 22.5693 16.4594 23.5415C17.4316 24.5137 18.6121 24.9999 20.001 24.9999ZM20.001 36.6665C17.6955 36.6665 15.5288 36.2287 13.501 35.3532C11.4732 34.4787 9.70935 33.2915 8.20935 31.7915C6.70935 30.2915 5.52213 28.5276 4.64768 26.4999C3.77213 24.4721 3.33435 22.3054 3.33435 19.9999C3.33435 17.6943 3.77213 15.5276 4.64768 13.4999C5.52213 11.4721 6.70935 9.70819 8.20935 8.20819C9.70935 6.70819 11.4732 5.52041 13.501 4.64486C15.5288 3.77041 17.6955 3.33319 20.001 3.33319C22.3066 3.33319 24.4732 3.77041 26.501 4.64486C28.5288 5.52041 30.2927 6.70819 31.7927 8.20819C33.2927 9.70819 34.4799 11.4721 35.3543 13.4999C36.2299 15.5276 36.6677 17.6943 36.6677 19.9999C36.6677 22.3054 36.2299 24.4721 35.3543 26.4999C34.4799 28.5276 33.2927 30.2915 31.7927 31.7915C30.2927 33.2915 28.5288 34.4787 26.501 35.3532C24.4732 36.2287 22.3066 36.6665 20.001 36.6665ZM20.001 33.3332C23.7232 33.3332 26.876 32.0415 29.4593 29.4582C32.0427 26.8749 33.3343 23.7221 33.3343 19.9999C33.3343 16.2776 32.0427 13.1249 29.4593 10.5415C26.876 7.95819 23.7232 6.66652 20.001 6.66652C16.2788 6.66652 13.126 7.95819 10.5427 10.5415C7.95935 13.1249 6.66768 16.2776 6.66768 19.9999C6.66768 23.7221 7.95935 26.8749 10.5427 29.4582C13.126 32.0415 16.2788 33.3332 20.001 33.3332Z" fill="white"/>
</g>
</svg>
