<svg width="23" height="23" viewBox="0 0 23 23" fill="none" xmlns="http://www.w3.org/2000/svg">
<mask id="mask0_8_418" style="mask-type:alpha" maskUnits="userSpaceOnUse" x="0" y="0" width="23" height="23">
<rect x="-6.10352e-05" width="22.8923" height="22.8923" fill="#D9D9D9"/>
</mask>
<g mask="url(#mask0_8_418)">
<path d="M6.19996 16.6923L13.3538 13.3538L16.6923 6.19999L9.53842 9.53845L6.19996 16.6923ZM11.4461 12.4C11.1759 12.4 10.9495 12.3084 10.767 12.1253C10.5838 11.9428 10.4923 11.7164 10.4923 11.4461C10.4923 11.1759 10.5838 10.9492 10.767 10.7661C10.9495 10.5836 11.1759 10.4923 11.4461 10.4923C11.7164 10.4923 11.9431 10.5836 12.1262 10.7661C12.3087 10.9492 12.4 11.1759 12.4 11.4461C12.4 11.7164 12.3087 11.9428 12.1262 12.1253C11.9431 12.3084 11.7164 12.4 11.4461 12.4ZM11.4461 20.9846C10.1266 20.9846 8.88663 20.7341 7.72612 20.233C6.5656 19.7325 5.55612 19.0531 4.69765 18.1946C3.83919 17.3361 3.15974 16.3267 2.65928 15.1661C2.1582 14.0056 1.90765 12.7656 1.90765 11.4461C1.90765 10.1267 2.1582 8.88666 2.65928 7.72615C3.15974 6.56563 3.83919 5.55615 4.69765 4.69768C5.55612 3.83922 6.5656 3.15945 7.72612 2.65836C8.88663 2.15791 10.1266 1.90768 11.4461 1.90768C12.7656 1.90768 14.0056 2.15791 15.1661 2.65836C16.3266 3.15945 17.3361 3.83922 18.1946 4.69768C19.053 5.55615 19.7325 6.56563 20.2329 7.72615C20.734 8.88666 20.9846 10.1267 20.9846 11.4461C20.9846 12.7656 20.734 14.0056 20.2329 15.1661C19.7325 16.3267 19.053 17.3361 18.1946 18.1946C17.3361 19.0531 16.3266 19.7325 15.1661 20.233C14.0056 20.7341 12.7656 20.9846 11.4461 20.9846ZM11.4461 19.0769C13.5764 19.0769 15.3807 18.3377 16.8592 16.8592C18.3377 15.3808 19.0769 13.5764 19.0769 11.4461C19.0769 9.31589 18.3377 7.51153 16.8592 6.03307C15.3807 4.55461 13.5764 3.81538 11.4461 3.81538C9.31586 3.81538 7.5115 4.55461 6.03304 6.03307C4.55458 7.51153 3.81535 9.31589 3.81535 11.4461C3.81535 13.5764 4.55458 15.3808 6.03304 16.8592C7.5115 18.3377 9.31586 19.0769 11.4461 19.0769Z" fill="white"/>
</g>
</svg>
