<svg width="19" height="19" viewBox="0 0 19 19" fill="none" xmlns="http://www.w3.org/2000/svg">
<path d="M14.6028 13.3148L18.5042 17.2153L17.2153 18.5042L13.3148 14.6028C11.8634 15.7662 10.0583 16.399 8.19818 16.3964C3.67278 16.3964 0 12.7236 0 8.19818C0 3.67278 3.67278 0 8.19818 0C12.7236 0 16.3964 3.67278 16.3964 8.19818C16.399 10.0583 15.7662 11.8634 14.6028 13.3148ZM12.7755 12.6389C13.9313 11.4499 14.5769 9.85637 14.5745 8.19818C14.5745 4.6757 11.7207 1.82182 8.19818 1.82182C4.6757 1.82182 1.82182 4.6757 1.82182 8.19818C1.82182 11.7207 4.6757 14.5745 8.19818 14.5745C9.85637 14.5769 11.4499 13.9313 12.6389 12.7755L12.7755 12.6389Z" fill="white"/>
</svg>
