<svg width="30" height="30" viewBox="0 0 30 30" fill="none" xmlns="http://www.w3.org/2000/svg">
<path d="M22.4769 23.406C20.7651 21.1468 18.053 19.6875 15 19.6875C11.947 19.6875 9.23486 21.1468 7.52308 23.406M22.4769 23.406C24.7919 21.3454 26.25 18.343 26.25 15C26.25 8.7868 21.2132 3.75 15 3.75C8.7868 3.75 3.75 8.7868 3.75 15C3.75 18.343 5.20813 21.3454 7.52308 23.406M22.4769 23.406C20.4894 25.1751 17.8702 26.25 15 26.25C12.1298 26.25 9.51063 25.1751 7.52308 23.406M18.75 12.1875C18.75 14.2586 17.0711 15.9375 15 15.9375C12.9289 15.9375 11.25 14.2586 11.25 12.1875C11.25 10.1164 12.9289 8.4375 15 8.4375C17.0711 8.4375 18.75 10.1164 18.75 12.1875Z" stroke="white" stroke-width="1.5" stroke-linecap="round" stroke-linejoin="round"/>
</svg>
